<svg width="126" height="48" viewBox="0 0 126 48" fill="none" xmlns="http://www.w3.org/2000/svg">
<path d="M12.2793 31.8535H23.668V34H9.17578V32.0312L20.0859 16.2539H9.35352V14.0938H23.2305V16.0215L12.2793 31.8535ZM41.0859 14.0938V27.6289C41.0768 29.5065 40.4844 31.0423 39.3086 32.2363C38.1419 33.4303 36.556 34.1003 34.5508 34.2461L33.8535 34.2734C31.6751 34.2734 29.9388 33.6855 28.6445 32.5098C27.3503 31.334 26.694 29.7161 26.6758 27.6562V14.0938H29.2734V27.5742C29.2734 29.0143 29.6699 30.1354 30.4629 30.9375C31.2559 31.7305 32.3861 32.127 33.8535 32.127C35.3392 32.127 36.474 31.7305 37.2578 30.9375C38.0508 30.1445 38.4473 29.028 38.4473 27.5879V14.0938H41.0859ZM48.0449 34H45.4199V14.0938H48.0449V34Z" fill="#4E4C4B"/>
<path d="M52.8574 34V14.0938H59.3652C61.5254 14.0938 63.1478 14.5404 64.2324 15.4336C65.3262 16.3268 65.873 17.6484 65.873 19.3984C65.873 20.3281 65.6087 21.153 65.0801 21.873C64.5514 22.584 63.8314 23.1354 62.9199 23.5273C63.9954 23.8281 64.8431 24.4023 65.4629 25.25C66.0918 26.0885 66.4062 27.0911 66.4062 28.2578C66.4062 30.0443 65.8275 31.4479 64.6699 32.4688C63.5124 33.4896 61.8763 34 59.7617 34H52.8574ZM55.4824 24.6895V31.8535H59.8164C61.0378 31.8535 61.9993 31.5391 62.7012 30.9102C63.4121 30.2721 63.7676 29.3971 63.7676 28.2852C63.7676 25.888 62.4642 24.6895 59.8574 24.6895H55.4824ZM55.4824 22.584H59.4473C60.5957 22.584 61.5117 22.2969 62.1953 21.7227C62.888 21.1484 63.2344 20.3691 63.2344 19.3848C63.2344 18.291 62.9154 17.498 62.2773 17.0059C61.6393 16.5046 60.6686 16.2539 59.3652 16.2539H55.4824V22.584ZM73.1191 34H70.4941V14.0938H73.1191V34ZM89.1836 24.7988H80.5566V31.8535H90.5781V34H77.9316V14.0938H90.4414V16.2539H80.5566V22.6523H89.1836V24.7988ZM109.145 34H106.506L96.4844 18.6602V34H93.8457V14.0938H96.4844L106.533 29.502V14.0938H109.145V34Z" fill="#527C73"/>
<path d="M109 1H1V47H109" stroke="#4E4C4B" stroke-width="2"/>
</svg>
